<mxfile host="app.diagrams.net" modified="2022-08-28T17:25:19.427Z" agent="5.0 (X11)" etag="jKw_JL44_eN7miSzsgLo" version="20.2.7" type="github">
  <diagram id="a-QX8mBSMtBPi-ePR0x0" name="Page-1">
    <mxGraphModel dx="677" dy="378" grid="1" gridSize="10" guides="1" tooltips="1" connect="1" arrows="1" fold="1" page="1" pageScale="1" pageWidth="800" pageHeight="520" math="0" shadow="0">
      <root>
        <mxCell id="0" />
        <mxCell id="1" parent="0" />
        <mxCell id="VQPmKQ6DlBFONKVE424w-1" value="&lt;div&gt;&lt;br&gt;&lt;/div&gt;&lt;div&gt;&lt;br&gt;&lt;/div&gt;&lt;div&gt;&lt;br&gt;&lt;/div&gt;&lt;div align=&quot;left&quot;&gt;&lt;br&gt;&lt;/div&gt;&lt;div align=&quot;left&quot;&gt;&lt;br&gt;&lt;/div&gt;&lt;div&gt;&lt;br&gt;&lt;/div&gt;&lt;div&gt;&lt;br&gt;&lt;/div&gt;&lt;div&gt;&lt;br&gt;&lt;/div&gt;" style="rounded=1;whiteSpace=wrap;html=1;" vertex="1" parent="1">
          <mxGeometry x="120" y="360" width="440" height="120" as="geometry" />
        </mxCell>
        <mxCell id="VQPmKQ6DlBFONKVE424w-4" value="" style="endArrow=none;dashed=1;html=1;rounded=0;entryX=1;entryY=0.5;entryDx=0;entryDy=0;exitX=0;exitY=0.5;exitDx=0;exitDy=0;" edge="1" parent="1" source="VQPmKQ6DlBFONKVE424w-1" target="VQPmKQ6DlBFONKVE424w-1">
          <mxGeometry width="50" height="50" relative="1" as="geometry">
            <mxPoint x="360" y="280" as="sourcePoint" />
            <mxPoint x="410" y="230" as="targetPoint" />
          </mxGeometry>
        </mxCell>
        <mxCell id="VQPmKQ6DlBFONKVE424w-8" value="Physical Host" style="text;html=1;strokeColor=none;fillColor=none;align=center;verticalAlign=middle;whiteSpace=wrap;rounded=0;fontStyle=1" vertex="1" parent="1">
          <mxGeometry x="120" y="360" width="440" height="20" as="geometry" />
        </mxCell>
        <mxCell id="VQPmKQ6DlBFONKVE424w-9" value="&lt;font style=&quot;font-size: 10px;&quot;&gt;User Space&lt;/font&gt;" style="text;html=1;strokeColor=none;fillColor=none;align=center;verticalAlign=middle;whiteSpace=wrap;rounded=0;" vertex="1" parent="1">
          <mxGeometry x="120" y="400" width="80" height="20" as="geometry" />
        </mxCell>
        <mxCell id="VQPmKQ6DlBFONKVE424w-10" value="&lt;font style=&quot;font-size: 10px;&quot;&gt;Kernel Space&lt;/font&gt;" style="text;html=1;strokeColor=none;fillColor=none;align=center;verticalAlign=middle;whiteSpace=wrap;rounded=0;" vertex="1" parent="1">
          <mxGeometry x="120" y="420" width="80" height="20" as="geometry" />
        </mxCell>
      </root>
    </mxGraphModel>
  </diagram>
</mxfile>
